# File created by Blade
# Date/Time:  Tue Sep 30 19:36:50 2014
#---------------------------------------------------------
:version 1.10
:name HOM
:units
  mass 1.0
  length 1.000000
  angle deg
:documentation
     Acclaim Skeleton File
:root
   axis xyz
   order TX TY TZ RX RY RZ
   position 0.000000 0.000000 0.000000
   orientation 0 0 0
:bonedata
   begin
      id 1
      name Spine_dum
      direction 0.000000 1.000000 0.000000
      length 3.241213
      axis 0.0 0.0 0.0 xyz
   end
   begin
      id 2
      name LeftUpLeg_dum
      direction 1.000000 0.000000 0.000000
      length 3.434019
      axis 0.0 0.0 0.0 xyz
   end
   begin
      id 3
      name RightUpLeg_dum
      direction -1.000000 0.000000 0.000000
      length 3.434019
      axis 0.0 0.0 0.0 xyz
   end
   begin
      id 4
      name Spine
      direction 0.000000 1.000000 0.000000
      length 0.000000
      axis 0.0 0.0 0.0 xyz
      dof rx ry rz
   end
   begin
      id 5
      name Spine_dum1
      direction 0.000000 1.000000 0.000000
      length 18.382958
      axis 0.0 0.0 0.0 xyz
   end
   begin
      id 6
      name Spine_dum2
      direction 0.000000 1.000000 0.000000
      length 12.828261
      axis 0.0 0.0 0.0 xyz
   end
   begin
      id 7
      name Spine_dum3
      direction 0.000000 1.000000 0.000000
      length 12.828261
      axis 0.0 0.0 0.0 xyz
   end
   begin
      id 8
      name Head
      direction 0.000000 1.000000 0.000000
      length 4.527550
      axis 0.0 0.0 0.0 xyz
      dof rx ry rz
   end
   begin
      id 9
      name LeftShoulder
      direction 1.000000 0.000000 0.000000
      length 7.748055
      axis 0.0 0.0 -90.0 xyz
      dof rx ry rz
   end
   begin
      id 10
      name LeftArm
      direction 1.000000 0.000000 0.000000
      length 10.635614
      axis 0.0 0.0 -90.0 xyz
      dof rx ry rz
   end
   begin
      id 11
      name LeftForeArm
      direction 1.000000 0.000000 0.000000
      length 8.346755
      axis 0.0 0.0 -90.0 xyz
      dof ry rz rx
   end
   begin
      id 12
      name LeftHand
      direction 0.000000 0.000000 0.000000
      length 0.000000
      axis 0.0 0.0 -90.0 xyz
      dof rx ry rz
   end
   begin
      id 13
      name LeftHand_dum1
      direction 0.000000 0.000000 0.000000
      length 0.000000
      axis 0.0 0.0 -90.0 xyz
   end
   begin
      id 14
      name LeftHand_dum2
      direction 1.000000 0.000000 0.000000
      length 3.937000
      axis 0.0 0.0 -90.0 xyz
   end
   begin
      id 15
      name LeftHandThumb1
      direction 0.000000 0.000000 1.000000
      length 3.937000
      axis 0.0 0.0 -90.0 xyz
      dof rx rz ry
   end
   begin
      id 16
      name RightShoulder
      direction -1.000000 0.000000 0.000000
      length 7.748055
      axis 0.0 0.0 90.0 xyz
      dof rx ry rz
   end
   begin
      id 17
      name RightArm
      direction -1.000000 0.000000 0.000000
      length 10.635614
      axis 0.0 0.0 90.0 xyz
      dof rx ry rz
   end
   begin
      id 18
      name RightForeArm
      direction -1.000000 0.000000 0.000000
      length 8.346755
      axis 0.0 0.0 90.0 xyz
      dof ry rz rx
   end
   begin
      id 19
      name RightHand
      direction 0.000000 0.000000 0.000000
      length 0.000000
      axis 0.0 0.0 90.0 xyz
      dof rx ry rz
   end
   begin
      id 20
      name RightHand_dum1
      direction 0.000000 0.000000 0.000000
      length 0.000000
      axis 0.0 0.0 90.0 xyz
   end
   begin
      id 21
      name RightHand_dum2
      direction -1.000000 0.000000 0.000000
      length 3.937000
      axis 0.0 0.0 90.0 xyz
   end
   begin
      id 22
      name RightHandThumb1
      direction 0.000000 0.000000 1.000000
      length 3.937000
      axis 0.0 0.0 90.0 xyz
      dof rx rz ry
   end
   begin
      id 23
      name LeftUpLeg
      direction 0.000000 -1.000000 0.000000
      length 15.713025
      axis 0.0 0.0 0.0 xyz
      dof rx ry rz
   end
   begin
      id 24
      name LeftLeg
      direction 0.000000 -1.000000 0.000000
      length 14.435119
      axis 0.0 0.0 0.0 xyz
      dof rx ry rz
   end
   begin
      id 25
      name LeftFoot
      direction 0.000000 -0.258819 0.965926
      length 4.938895
      axis 15.0 0.0 0.0 xyz
      dof rx ry rz
   end
   begin
      id 26
      name LeftToeBase
      direction 0.000000 0.000000 1.000000
      length 2.952750
      axis 0.0 0.0 0.0 xyz
      dof rx ry rz
   end
   begin
      id 27
      name RightUpLeg
      direction 0.000000 -1.000000 0.000000
      length 15.713025
      axis 0.0 0.0 0.0 xyz
      dof rx ry rz
   end
   begin
      id 28
      name RightLeg
      direction 0.000000 -1.000000 0.000000
      length 14.435119
      axis 0.0 0.0 0.0 xyz
      dof rx ry rz
   end
   begin
      id 29
      name RightFoot
      direction 0.000000 -0.258819 0.965926
      length 4.938895
      axis 15.0 0.0 0.0 xyz
      dof rx ry rz
   end
   begin
      id 30
      name RightToeBase
      direction 0.000000 0.000000 1.000000
      length 2.952750
      axis 0.0 0.0 0.0 xyz
      dof rx ry rz
   end
:hierarchy
   begin
      root Spine_dum LeftUpLeg_dum RightUpLeg_dum
      Spine_dum Spine
      LeftUpLeg_dum LeftUpLeg
      RightUpLeg_dum RightUpLeg
      Spine Spine_dum1 Spine_dum2 Spine_dum3
      Spine_dum1 Head
      Spine_dum2 LeftShoulder
      Spine_dum3 RightShoulder
      LeftShoulder LeftArm
      LeftArm LeftForeArm
      LeftForeArm LeftHand
      LeftHand LeftHand_dum1 LeftHand_dum2
      LeftHand_dum1 LeftHandThumb1
      RightShoulder RightArm
      RightArm RightForeArm
      RightForeArm RightHand
      RightHand RightHand_dum1 RightHand_dum2
      RightHand_dum1 RightHandThumb1
      LeftUpLeg LeftLeg
      LeftLeg LeftFoot
      LeftFoot LeftToeBase
      RightUpLeg RightLeg
      RightLeg RightFoot
      RightFoot RightToeBase
   end

# File created by Blade
# Date/Time:  Tue Sep 23 19:06:47 2014
# Frame Rate: 120.000 fps
#------------------------------------------------------
:FULLY-SPECIFIED
:DEGREES
558
root 2.386178 34.690814 -5.419374 52.555904 -10.186227 -46.705916
Spine -46.030662 30.575901 10.199402
Head 0.089215 -3.502482 19.353935
LeftShoulder -19.050657 16.239593 39.923348
LeftArm 40.665514 -77.409206 7.011149
LeftForeArm 98.138820 -0.000000 5.416945
LeftHand -18.170112 -0.000000 64.071573
LeftHandThumb1 -26.253704 0.000000 33.147579
RightShoulder -9.796088 -7.155091 -19.379270
RightArm 114.891377 39.613670 150.318038
RightForeArm 48.459184 -0.000000 63.663885
RightHand -0.249151 -0.000000 24.277133
RightHandThumb1 -24.326973 -0.000000 -32.862282
LeftUpLeg -40.222175 28.009590 30.698828
LeftLeg 18.792058 -0.000000 -0.000000
LeftFoot -10.627010 21.857736 4.592396
LeftToeBase -0.555358 -0.000000 0.000000
RightUpLeg -182.531747 -37.079716 55.419401
RightLeg -5.416951 -0.000000 0.000000
RightFoot 29.820581 -22.113945 14.429452
RightToeBase 33.060511 -0.000000 -0.000000
559
root 2.383877 34.690957 -5.412026 52.569088 -10.152589 -46.792281
Spine -45.966213 30.504856 10.303721
Head 0.007296 -3.471020 19.456628
LeftShoulder -19.086178 16.203514 39.952478
LeftArm 40.905210 -77.558591 6.845883
LeftForeArm 98.170445 -0.000000 5.419705
LeftHand -18.073891 -0.000000 64.043678
LeftHandThumb1 -26.253704 0.000000 33.147579
RightShoulder -9.760940 -7.123619 -19.370106
RightArm 114.964100 39.623238 150.391527
RightForeArm 48.582464 -0.000000 63.558481
RightHand -0.226970 0.000000 24.331023
RightHandThumb1 -24.326973 -0.000000 -32.862282
LeftUpLeg -40.208702 28.102655 30.772559
LeftLeg 18.851172 -0.000000 -0.000000
LeftFoot -10.948054 21.750636 4.186549
LeftToeBase -0.185946 -0.000000 0.000000
RightUpLeg -182.570283 -37.100764 55.499731
RightLeg -5.320111 -0.000000 0.000000
RightFoot 29.858112 -22.174311 14.346571
RightToeBase 33.030246 -0.000000 -0.000000
560
root 2.380344 34.690419 -5.404881 52.583948 -10.165960 -46.856120
Spine -45.925278 30.446661 10.338360
Head -0.039162 -3.441973 19.558965
LeftShoulder -19.088029 16.155450 39.995421
LeftArm 41.477809 -77.761742 6.322570
LeftForeArm 98.152613 -0.000000 5.547845
LeftHand -18.173138 -0.000000 64.024785
LeftHandThumb1 -26.253704 0.000000 33.147579
RightShoulder -9.742694 -7.189682 -19.333027
RightArm 115.049322 39.574110 150.449817
RightForeArm 48.690035 -0.000000 63.472278
RightHand -0.148492 -0.000000 24.295354
RightHandThumb1 -24.326973 -0.000000 -32.862282
LeftUpLeg -40.184535 28.174900 30.821145
LeftLeg 18.917861 -0.000000 -0.000000
LeftFoot -11.111151 21.738154 3.992728
LeftToeBase -0.083952 -0.000000 0.000000
RightUpLeg -182.606530 -37.127615 55.525440
RightLeg -5.217123 -0.000000 0.000000
RightFoot 29.917901 -22.223734 14.203101
RightToeBase 33.072318 -0.000000 -0.000000
561
root 2.377066 34.691034 -5.397044 52.583433 -10.167464 -46.929062
Spine -45.868035 30.379345 10.402268
Head -0.060218 -3.411368 19.686643
LeftShoulder -19.115647 16.084403 40.072900
LeftArm 42.100714 -77.831371 5.709533
LeftForeArm 97.925248 -0.000000 5.742179
LeftHand -18.159729 -0.000000 64.001240
LeftHandThumb1 -26.253704 0.000000 33.147579
RightShoulder -9.695483 -7.237489 -19.289035
RightArm 115.142626 39.561796 150.496014
RightForeArm 48.603983 0.000000 63.437517
RightHand -0.076940 -0.000000 24.135832
RightHandThumb1 -24.326973 -0.000000 -32.862282
LeftUpLeg -40.150787 28.227834 30.905657
LeftLeg 19.014425 -0.000000 -0.000000
LeftFoot -11.328935 21.699189 3.676991
LeftToeBase 0.097043 -0.000000 -0.000000
RightUpLeg -182.624557 -37.177377 55.569124
RightLeg -5.148700 -0.000000 0.000000
RightFoot 29.999677 -22.274786 14.079843
RightToeBase 33.096102 -0.000000 -0.000000
562
root 2.375262 34.691746 -5.389467 52.603217 -10.192987 -46.988604
Spine -45.851428 30.334447 10.398825
Head -0.083582 -3.427440 19.824691
LeftShoulder -19.123601 16.048615 40.118732
LeftArm 42.569725 -77.929810 5.312327
LeftForeArm 97.906341 0.000000 5.853024
LeftHand -18.029813 -0.000000 63.927326
LeftHandThumb1 -26.253704 0.000000 33.147579
RightShoulder -9.676126 -7.272022 -19.240596
RightArm 115.237629 39.596959 150.537337
RightForeArm 48.652192 0.000000 63.373632
RightHand -0.054847 -0.000000 24.103564
RightHandThumb1 -24.326973 -0.000000 -32.862282
LeftUpLeg -40.144691 28.284950 30.954267
LeftLeg 19.125563 -0.000000 -0.000000
LeftFoot -11.518274 21.680410 3.362475
LeftToeBase 0.173966 -0.000000 -0.000000
RightUpLeg -182.638615 -37.216766 55.596538
RightLeg -5.115749 -0.000000 0.000000
RightFoot 30.010647 -22.321861 14.132027
RightToeBase 33.188657 -0.000000 -0.000000
563
root 2.374658 34.693242 -5.382567 52.638280 -10.241950 -47.052916
Spine -45.850040 30.311561 10.378349
Head -0.089607 -3.427351 19.954103
LeftShoulder -19.127283 16.028901 40.156999
LeftArm 43.032361 -78.019571 4.931336
LeftForeArm 98.108545 -0.000000 5.979653
LeftHand -18.253946 -0.000000 64.039595
LeftHandThumb1 -26.253704 0.000000 33.147579
RightShoulder -9.679375 -7.302209 -19.183447
RightArm 115.303682 39.610968 150.528550
RightForeArm 48.653746 -0.000000 63.287849
RightHand 0.027475 0.000000 24.125517
RightHandThumb1 -24.326973 -0.000000 -32.862282
LeftUpLeg -40.156670 28.389087 30.964638
LeftLeg 19.242760 -0.000000 -0.000000
LeftFoot -11.684038 21.648722 3.078574
LeftToeBase 0.241939 -0.000000 -0.000000
RightUpLeg -182.627228 -37.281314 55.603358
RightLeg -5.118219 -0.000000 0.000000
RightFoot 29.967735 -22.358604 14.202606
RightToeBase 33.331817 -0.000000 -0.000000
